<svg width="29" height="29" viewBox="0 0 29 29" fill="none" xmlns="http://www.w3.org/2000/svg">
<g clip-path="url(#clip0_59_219)">
<path d="M22.0506 29C21.2882 29 20.6138 28.7046 20.0567 28.1435C19.5289 27.5824 19.2357 26.9032 19.2357 26.1354C19.2357 25.3676 19.4996 24.6884 20.0567 24.1273C20.5845 23.5957 21.2589 23.3004 22.0506 23.3004C22.8423 23.3004 23.4874 23.5662 24.0446 24.1273C24.5724 24.6588 24.8656 25.338 24.8656 26.1354C24.8656 26.9032 24.6017 27.5824 24.0446 28.1435C23.4874 28.7046 22.813 29 22.0506 29ZM22.0506 24.5112C21.5815 24.5112 21.2296 24.6588 20.907 24.9837C20.5845 25.3085 20.4379 25.6924 20.4379 26.1354C20.4379 26.6079 20.5845 26.9918 20.907 27.3167C21.2296 27.6415 21.6108 27.7892 22.0506 27.7892C22.4905 27.7892 22.8717 27.6415 23.1942 27.3167C23.5167 26.9918 23.6634 26.6079 23.6634 26.1354C23.6634 25.6629 23.5167 25.3085 23.1942 24.9837C22.8717 24.6588 22.4905 24.5112 22.0506 24.5112ZM8.94344 29C8.18106 29 7.50664 28.7046 6.94951 28.1435C6.4217 27.5824 6.12848 26.9032 6.12848 26.1354C6.12848 25.3676 6.39238 24.6884 6.94951 24.1273C7.47732 23.5957 8.15173 23.3004 8.94344 23.3004C9.70583 23.3004 10.3802 23.5662 10.9374 24.1273C11.4652 24.6588 11.7584 25.338 11.7584 26.1354C11.7584 26.9032 11.4945 27.5824 10.9374 28.1435C10.3802 28.7046 9.70583 29 8.94344 29ZM8.94344 24.5112C8.47428 24.5112 8.12241 24.6588 7.79986 24.9837C7.47732 25.3085 7.3307 25.6924 7.3307 26.1354C7.3307 26.6079 7.47732 26.9918 7.79986 27.3167C8.12241 27.6415 8.5036 27.7892 8.94344 27.7892C9.38328 27.7892 9.76447 27.6415 10.087 27.3167C10.4096 26.9918 10.5562 26.6079 10.5562 26.1354C10.5562 25.6629 10.4096 25.3085 10.087 24.9837C9.76447 24.6588 9.38328 24.5112 8.94344 24.5112ZM24.6896 22.8279H6.74425C6.1578 22.8279 5.60067 22.5916 5.19016 22.0896C4.77964 21.5875 4.63303 21.0264 4.721 20.4063L5.48338 16.2423L4.36913 4.9022L1.40755 3.98673C0.879743 3.80954 0.469227 3.45516 0.205324 2.98265C6.63777e-05 2.51015 -0.0585787 1.97858 0.088034 1.44701C0.263969 0.885911 0.61584 0.472469 1.11432 0.236216C1.61281 -3.61055e-05 2.11129 -0.0590992 2.60977 0.0885586L6.86154 1.44701C7.24274 1.56514 7.56528 1.80139 7.79986 2.12624C8.03444 2.42155 8.18106 2.77593 8.2397 3.18937L8.44496 5.07939L27.2114 7.20567C27.7978 7.29426 28.2963 7.58958 28.5896 8.03255C28.9121 8.47552 29.0587 9.00709 28.9707 9.56819L27.7978 16.3014C27.7392 16.8034 27.5046 17.2169 27.1234 17.5417C26.7422 17.8666 26.3024 18.0142 25.8039 18.0142H9.29531L9.17802 18.7525H24.6896C25.2468 18.7525 25.7159 18.9592 26.0971 19.3431C26.5076 19.7271 26.7129 20.2291 26.7129 20.7902C26.7129 21.3513 26.5076 21.8533 26.0971 22.2372C25.7159 22.6211 25.2175 22.8279 24.6896 22.8279ZM2.05264 1.18123C1.90603 1.18123 1.75942 1.21076 1.61281 1.29935C1.40755 1.38795 1.29026 1.53561 1.20229 1.77186C1.14365 2.00811 1.17297 2.24436 1.29026 2.45108C1.37823 2.6578 1.52484 2.80546 1.75942 2.86453L5.45406 4.04579L6.65628 16.3309L5.86458 20.613C5.83525 20.8788 5.8939 21.115 6.06983 21.3513C6.24577 21.558 6.45103 21.6761 6.71493 21.6761H24.6603C24.8949 21.6761 25.1002 21.5875 25.2761 21.4104C25.452 21.2332 25.54 21.056 25.54 20.7902C25.54 20.5244 25.452 20.3472 25.2761 20.17C25.1002 19.9928 24.8949 19.9042 24.6603 19.9042H7.77054L8.32767 16.833H25.8332C26.0385 16.833 26.2144 16.7739 26.3904 16.6262C26.537 16.5081 26.6249 16.3605 26.6543 16.1537V16.1242L27.8272 9.391C27.8565 9.12522 27.8272 8.9185 27.6806 8.74131L27.6512 8.71178C27.5339 8.53459 27.3287 8.41646 27.0648 8.38693L7.38935 6.17206L7.09612 3.33703C7.0668 3.15984 7.00816 3.01218 6.89087 2.86453C6.8029 2.7464 6.68561 2.6578 6.50967 2.59874L2.28723 1.21076C2.19926 1.18123 2.14061 1.18123 2.05264 1.18123Z" fill="#69B02E"/>
<path d="M21.8803 29C21.0473 29 20.3004 28.6847 19.7258 28.0827C19.1513 27.4807 18.8353 26.7641 18.8353 25.9328C18.8353 25.1015 19.1226 24.3849 19.7258 23.7829C20.3004 23.2096 21.0473 22.8943 21.8803 22.8943C22.7134 22.8943 23.4316 23.181 24.0348 23.7829C24.6093 24.3562 24.9253 25.1015 24.9253 25.9328C24.9253 26.7641 24.6381 27.4807 24.0348 28.0827C23.4603 28.6847 22.7134 29 21.8803 29ZM21.8803 24.6429C21.5069 24.6429 21.2196 24.7575 20.9611 25.0155C20.7025 25.2735 20.5876 25.5602 20.5876 25.9328C20.5876 26.3055 20.7025 26.6208 20.9611 26.8788C21.2196 27.1368 21.5069 27.2514 21.8803 27.2514C22.2538 27.2514 22.541 27.1368 22.7996 26.8788C23.0581 26.6208 23.173 26.3055 23.173 25.9328C23.173 25.5602 23.0581 25.2735 22.7996 25.0155C22.541 24.7575 22.2538 24.6429 21.8803 24.6429ZM9.0396 29C8.20653 29 7.45965 28.6847 6.88512 28.0827C6.31059 27.4807 5.9946 26.7641 5.9946 25.9328C5.9946 25.1015 6.28186 24.3849 6.88512 23.7829C7.45965 23.2096 8.20653 22.8943 9.0396 22.8943C9.87267 22.8943 10.5908 23.181 11.1941 23.7829C11.7686 24.3562 12.0846 25.1015 12.0846 25.9328C12.0846 26.7641 11.7973 27.4807 11.1941 28.0827C10.5908 28.6847 9.84394 29 9.0396 29ZM9.0396 24.6429C8.66616 24.6429 8.37889 24.7575 8.12035 25.0155C7.86182 25.2735 7.74691 25.5602 7.74691 25.9328C7.74691 26.3055 7.86182 26.6208 8.12035 26.8788C8.37889 27.1368 8.66616 27.2514 9.0396 27.2514C9.41304 27.2514 9.70031 27.1368 9.95885 26.8788C10.2174 26.6208 10.3323 26.3055 10.3323 25.9328C10.3323 25.5602 10.2174 25.2735 9.95885 25.0155C9.70031 24.7575 9.41304 24.6429 9.0396 24.6429ZM24.4657 22.7223H6.88512C6.22441 22.7223 5.62115 22.4357 5.16153 21.9197L5.1328 21.891C4.70191 21.375 4.52955 20.7444 4.61573 20.0564V20.0278L5.33389 16.072L4.29974 5.26519L1.59945 4.40523C0.996193 4.20458 0.536569 3.83193 0.249305 3.28729C-0.00923351 2.77131 -0.0666864 2.19801 0.0769459 1.6247V1.59604C0.278031 0.994069 0.680202 0.535426 1.226 0.248773C1.77181 -0.00921383 2.34634 -0.0665443 2.92087 0.0767819H2.94959L7.11493 1.39538C7.54583 1.53871 7.89054 1.76803 8.17781 2.14068C8.43635 2.48466 8.6087 2.85731 8.66616 3.28729V3.31595L8.83852 4.92121L26.9936 6.95644C27.6543 7.04243 28.2001 7.35775 28.5449 7.87373C28.9183 8.36103 29.0619 8.93434 28.9758 9.59364L27.8267 16.1293C27.7693 16.674 27.482 17.1613 27.0511 17.5052C26.6202 17.8492 26.1318 18.0212 25.586 18.0212H9.64286L9.61413 18.1645H24.4657C25.069 18.1645 25.6148 18.3939 26.0457 18.8238C26.5053 19.2538 26.7351 19.8271 26.7351 20.4578C26.7351 21.0884 26.5053 21.6617 26.0457 22.0917C25.6148 22.493 25.069 22.7223 24.4657 22.7223ZM6.45422 20.8017C6.62658 20.9737 6.77021 21.0024 6.88512 21.0024H24.4657C24.6093 21.0024 24.753 20.9451 24.8679 20.8304C24.9828 20.7157 25.0115 20.6011 25.0115 20.4578C25.0115 20.2858 24.9541 20.1711 24.8679 20.0851C24.753 19.9705 24.6381 19.9131 24.4657 19.9131H7.54583L8.17781 16.33H25.5573C25.7009 16.33 25.8159 16.3013 25.9308 16.1866C26.0169 16.1006 26.0744 16.0433 26.0744 15.9V15.8427L27.2234 9.30699C27.2522 9.10633 27.1947 8.99167 27.1373 8.90567L27.1085 8.87701C27.0511 8.79101 26.9649 8.70502 26.7351 8.67635L7.22983 6.49779L6.91384 3.54527C6.88512 3.43061 6.85639 3.31595 6.77021 3.20129C6.71276 3.1153 6.6553 3.08663 6.5404 3.05797L2.43252 1.73937C2.28888 1.68203 2.14525 1.7107 2.00162 1.7967C1.85799 1.85403 1.80053 1.94002 1.74308 2.08335C1.68563 2.25534 1.71435 2.39867 1.77181 2.54199C1.82926 2.68532 1.91544 2.74265 2.0878 2.79998L5.87969 4.00392L7.0862 16.158L6.31059 20.3431C6.31059 20.4864 6.33931 20.6298 6.45422 20.8017Z" fill="#69B02E"/>
</g>
<defs>
<clipPath id="clip0_59_219">
<rect width="29" height="29" fill="white"/>
</clipPath>
</defs>
</svg>
