<svg width="29" height="29" viewBox="0 0 29 29" fill="none" xmlns="http://www.w3.org/2000/svg">
<path fill-rule="evenodd" clip-rule="evenodd" d="M20.0501 28.1436C20.6072 28.7047 21.2816 29 22.044 29C22.8064 29 23.4808 28.7047 24.038 28.1436C24.5951 27.5825 24.859 26.9033 24.859 26.1355C24.859 25.3381 24.5658 24.6589 24.038 24.1273C23.4808 23.5662 22.8357 23.3004 22.044 23.3004C21.2523 23.3004 20.5779 23.5957 20.0501 24.1273C19.493 24.6884 19.2291 25.3676 19.2291 26.1355C19.2291 26.9033 19.5223 27.5825 20.0501 28.1436ZM6.94292 28.1436C7.50005 28.7047 8.17447 29 8.93685 29C9.69924 29 10.3737 28.7047 10.9308 28.1436C11.4879 27.5825 11.7518 26.9033 11.7518 26.1355C11.7518 25.3381 11.4586 24.6589 10.9308 24.1273C10.3737 23.5662 9.69924 23.3004 8.93685 23.3004C8.14514 23.3004 7.47072 23.5957 6.94292 24.1273C6.38579 24.6884 6.12189 25.3676 6.12189 26.1355C6.12189 26.9033 6.41511 27.5825 6.94292 28.1436ZM6.73766 22.8279H24.6831C25.2109 22.8279 25.7093 22.6212 26.0905 22.2373C26.5011 21.8534 26.7063 21.3513 26.7063 20.7902C26.7063 20.2291 26.5011 19.7271 26.0905 19.3432C25.7093 18.9593 25.2402 18.7526 24.6831 18.7526H9.17143L9.28872 18.0143H25.7973C26.2958 18.0143 26.7356 17.8666 27.1168 17.5418C27.498 17.2169 27.7326 16.8035 27.7913 16.3015L28.9642 9.56825C29.0521 9.00715 28.9055 8.47559 28.583 8.03261C28.2897 7.58964 27.7913 7.29432 27.2048 7.20573L8.43837 5.07946L8.23311 3.18943C8.17447 2.77599 8.02785 2.42161 7.79327 2.1263C7.55869 1.80145 7.23614 1.5652 6.85495 1.44707L2.60318 0.0886196C2.1047 -0.0590382 1.60621 2.49354e-05 1.10773 0.236277C0.609248 0.47253 0.257378 0.885972 0.0814422 1.44707C-0.0651705 1.97864 -0.00652542 2.51021 0.198732 2.98271C0.462635 3.45522 0.873151 3.8096 1.40096 3.98679L4.36253 4.90227L5.47679 16.2424L4.71441 20.4063C4.62644 21.0265 4.77305 21.5876 5.18357 22.0896C5.59408 22.5917 6.15121 22.8279 6.73766 22.8279Z" fill="#69B02E"/>
</svg>
