<svg width="10" height="12" viewBox="0 0 10 12" fill="none" xmlns="http://www.w3.org/2000/svg">
<path fill-rule="evenodd" clip-rule="evenodd" d="M6.83105 0.808438H2.91602C2.97614 0.64025 3.07323 0.485469 3.20202 0.357094C3.43033 0.128375 3.7403 0 4.06367 0H5.68339C6.00677 0 6.31673 0.128375 6.54545 0.357094C6.67423 0.485469 6.77092 0.64025 6.83105 0.808438ZM0.80925 10.1478V2.43347H0.40625C0.182 2.43347 0 2.25147 0 2.02722C0 1.80297 0.182 1.62097 0.40625 1.62097H9.34538C9.56962 1.62097 9.75163 1.80297 9.75163 2.02722C9.75163 2.25147 9.56962 2.43347 9.34538 2.43347H8.93425V10.1478C8.93425 10.4711 8.80587 10.7811 8.57716 11.0094C8.34844 11.2381 8.03847 11.3665 7.7155 11.3665H2.028C1.70463 11.3665 1.39466 11.2381 1.16594 11.0094C0.937625 10.7811 0.80925 10.4711 0.80925 10.1478ZM4.472 8.53169L4.46712 4.46919C4.46672 4.24494 4.64831 4.06294 4.87256 4.06253C5.09681 4.06213 5.27922 4.24413 5.27962 4.46838L5.2845 8.53088C5.28491 8.75513 5.10291 8.93713 4.87866 8.93753C4.65441 8.93794 4.47241 8.75594 4.472 8.53169ZM6.09456 8.53169L6.08928 4.46919C6.08928 4.24494 6.27087 4.06294 6.49512 4.06253C6.71937 4.06213 6.90178 4.24413 6.90178 4.46838L6.90706 8.53088C6.90706 8.75513 6.72547 8.93713 6.50122 8.93753C6.27697 8.93794 6.09456 8.75594 6.09456 8.53169ZM2.84944 8.53169L2.84456 4.46919C2.84416 4.24494 3.02616 4.06294 3.25041 4.06253C3.47425 4.06213 3.65666 4.24413 3.65706 4.46838L3.66194 8.53088C3.66234 8.75513 3.48034 8.93713 3.25609 8.93753C3.03225 8.93794 2.84984 8.75594 2.84944 8.53169Z" fill="#B12E56"/>
</svg>
