<svg width="20" height="20" viewBox="0 0 20 20" fill="none" xmlns="http://www.w3.org/2000/svg">
<path d="M10 0C4.47761 0 0 4.47761 0 10C0 15.5224 4.47761 20 10 20C15.5224 20 20 15.5224 20 10C20 4.47761 15.5224 0 10 0ZM8.07463 16.1157C7.8694 16.3284 7.61567 16.4328 7.3209 16.4328C7.02612 16.4328 6.77612 16.3284 6.56716 16.1157C6.36194 15.903 6.25746 15.6493 6.25746 15.3545C6.25746 15.0597 6.36194 14.8097 6.56716 14.6007C6.77239 14.3955 7.02612 14.291 7.3209 14.291C7.61567 14.291 7.86567 14.3955 8.07463 14.6007C8.27985 14.806 8.38433 15.0597 8.38433 15.3545C8.38433 15.6493 8.27985 15.903 8.07463 16.1157ZM14.3806 16.1157C14.1754 16.3284 13.9216 16.4328 13.6269 16.4328C13.3321 16.4328 13.0821 16.3284 12.8731 16.1157C12.6679 15.903 12.5634 15.6493 12.5634 15.3545C12.5634 15.0597 12.6679 14.8097 12.8731 14.6007C13.0784 14.3955 13.3321 14.291 13.6269 14.291C13.9216 14.291 14.1716 14.3955 14.3806 14.6007C14.5858 14.806 14.6903 15.0597 14.6903 15.3545C14.6903 15.6493 14.5896 15.903 14.3806 16.1157ZM16.6866 7.80597L16.1269 11.0261C16.1082 11.194 16.0299 11.3321 15.8993 11.4403C15.7649 11.5485 15.6157 11.6045 15.4478 11.6045H7.26119L7.09701 12.5187H14.8955C15.0821 12.5187 15.2463 12.5858 15.3843 12.7164C15.5224 12.8507 15.5896 13.0149 15.5896 13.2127C15.5896 13.4104 15.5224 13.5746 15.3843 13.709C15.2463 13.8433 15.0858 13.9067 14.8955 13.9067H6.27239C6.06716 13.9067 5.88806 13.8246 5.73881 13.6567C5.60075 13.4888 5.54851 13.2985 5.57463 13.0821L5.94403 11.0746L5.38433 5.43284L3.79104 4.92537C3.60448 4.86567 3.47015 4.75373 3.38433 4.58582C3.30224 4.41791 3.28358 4.24254 3.33209 4.05224C3.39179 3.86567 3.50746 3.73134 3.6791 3.64552C3.85075 3.5597 4.02612 3.54478 4.20522 3.59328L6.24254 4.24254C6.3694 4.28358 6.47761 4.35448 6.5597 4.46269C6.64179 4.5709 6.69403 4.69403 6.71642 4.83209L6.83582 5.95522L16.0821 6.99254C16.2873 7.02239 16.4478 7.11567 16.556 7.27239C16.6716 7.42164 16.7164 7.59701 16.6866 7.80597Z" fill="#69B02E"/>
</svg>
