<svg width="32" height="26" viewBox="0 0 30 25" fill="none" xmlns="http://www.w3.org/2000/svg">
<path fill-rule="evenodd" clip-rule="evenodd" d="M21.9105 0.0110131C22.8246 -0.0387392 23.7621 0.0794388 24.6833 0.386348C28.0002 1.47747 30.0686 4.6734 29.9771 8.10473C30.0226 9.10482 29.8913 10.1294 29.5616 11.1354C28.7824 13.572 24.862 17.4219 22.6217 19.4931C21.112 20.882 19.6022 22.1734 18.3116 23.148C16.0957 24.8537 15.4139 24.9999 14.8782 24.9999C14.2207 24.9999 13.4415 24.7075 11.4691 23.148C10.2029 22.1734 8.71749 20.8576 7.2321 19.4931C5.01619 17.4219 1.19314 13.572 0.413917 11.1597C0.102431 10.1877 -0.0270599 9.20076 0.00633535 8.23618C-0.130819 4.77371 1.9681 1.51186 5.34487 0.386348C6.2636 0.0802752 7.19848 -0.0380936 8.1102 0.01061C9.53145 -0.0489371 10.9468 0.25026 12.2483 0.901452C13.3198 1.43751 14.2451 2.16851 14.9756 3.07007C16.6882 1.05173 19.2632 -0.103605 21.9105 0.0110131Z" fill="#B12E56"/>
</svg>
