<svg width="17" height="14" viewBox="0 0 17 14" fill="none" xmlns="http://www.w3.org/2000/svg">
<g clip-path="url(#clip0_59_201)">
<path d="M8.43078 14C8.05821 14 7.61665 13.8363 6.49896 12.963C5.78143 12.4172 4.93971 11.6803 4.09799 10.9162C2.8423 9.75635 0.675908 7.6004 0.234349 6.24953C-0.579774 3.7388 0.800096 1.0507 3.31146 0.231982C4.52575 -0.150084 5.80902 -0.0545675 6.94052 0.504887C7.54766 0.805082 8.07201 1.21444 8.48597 1.71931C9.72786 0.272918 11.7701 -0.382053 13.6743 0.231982C16.1994 1.03705 17.5793 3.7388 16.7514 6.23588C16.3098 7.6004 14.0882 9.75635 12.8188 10.9162C11.9632 11.694 11.1077 12.4172 10.3764 12.963C9.12071 13.9181 8.73435 14 8.43078 14ZM4.78792 1.80118C4.48435 1.80118 4.18078 1.84212 3.87721 1.93764C2.30415 2.44251 1.44864 4.12087 1.95919 5.69007C2.12477 6.1813 3.03549 7.43666 5.10529 9.40157C6.60935 10.8207 7.89263 11.8304 8.43078 12.1443C9.75545 11.3801 14.5574 7.12282 15.0266 5.69007C15.5371 4.12087 14.6816 2.44251 13.1085 1.95128C11.5631 1.46005 9.87964 2.29241 9.34149 3.82068L8.48597 6.27682L7.63045 3.82068C7.21649 2.57896 6.0298 1.80118 4.78792 1.80118Z" fill="#585856"/>
</g>
<defs>
<clipPath id="clip0_59_201">
<rect width="17" height="14" fill="white"/>
</clipPath>
</defs>
</svg>
