<svg width="19" height="19" viewBox="0 0 19 19" fill="none" xmlns="http://www.w3.org/2000/svg">
<path fill-rule="evenodd" clip-rule="evenodd" d="M13.7565 0H5.24317C2.35209 0 0 2.3522 0 5.24328V13.7566C0 16.6478 2.35209 18.9999 5.24317 18.9999H13.7565C16.6478 18.9999 18.9999 16.6477 18.9999 13.7566V5.24328C19 2.3522 16.6478 0 13.7565 0ZM17.3142 13.7566C17.3142 15.7183 15.7183 17.3141 13.7566 17.3141H5.24317C3.28162 17.3142 1.68576 15.7183 1.68576 13.7566V5.24328C1.68576 3.28173 3.28162 1.68576 5.24317 1.68576H13.7565C15.7182 1.68576 17.3141 3.28173 17.3141 5.24328V13.7566H17.3142ZM9.49994 4.60438C6.80036 4.60438 4.60415 6.80059 4.60415 9.50017C4.60415 12.1996 6.80036 14.3957 9.49994 14.3957C12.1995 14.3957 14.3957 12.1996 14.3957 9.50017C14.3957 6.80059 12.1995 4.60438 9.49994 4.60438ZM9.49994 12.7099C7.73001 12.7099 6.28992 11.27 6.28992 9.50006C6.28992 7.73001 7.72989 6.29003 9.49994 6.29003C11.27 6.29003 12.71 7.73001 12.71 9.50006C12.71 11.27 11.2699 12.7099 9.49994 12.7099ZM13.7278 3.53684C13.9572 3.30645 14.2763 3.17496 14.6011 3.17496C14.927 3.17496 15.2461 3.30645 15.4754 3.53684C15.7058 3.7661 15.8373 4.08528 15.8373 4.41119C15.8373 4.73598 15.7058 5.05515 15.4754 5.28554C15.245 5.5148 14.927 5.64742 14.6011 5.64742C14.2763 5.64742 13.9571 5.5148 13.7278 5.28554C13.4974 5.05515 13.3648 4.73609 13.3648 4.41119C13.3648 4.08528 13.4973 3.7661 13.7278 3.53684Z" fill="#585856"/>
</svg>
