<svg width="40" height="40" viewBox="0 0 40 40" fill="none" xmlns="http://www.w3.org/2000/svg">
<g clip-path="url(#clip0_814_860)">
<mask id="mask0_814_860" style="mask-type:luminance" maskUnits="userSpaceOnUse" x="0" y="0" width="40" height="40">
<path d="M40 3.49691e-06L0 0L-3.49691e-06 40L40 40L40 3.49691e-06Z" fill="white"/>
</mask>
<g mask="url(#mask0_814_860)">
<path d="M39.9998 15.8527C39.9998 14.9987 39.3083 14.2861 38.4576 14.2715L19.6558 14.2715C18.957 14.1135 18.4308 13.4867 18.4308 12.7421L18.4308 7.85931C18.4308 6.99591 17.8938 6.74831 17.2374 7.30831L0.492352 18.9809C-0.164248 19.5415 -0.164248 20.4584 0.492352 21.0189L17.237 32.691C17.8938 33.2515 18.4308 33.0041 18.4308 32.1409L18.4308 27.258C18.4308 26.3949 19.1372 25.6885 20.0003 25.6885L38.4305 25.6611C39.2939 25.6607 40 24.9544 40 24.0916L39.9998 15.8527Z" fill="#585856"/>
</g>
</g>
<defs>
<clipPath id="clip0_814_860">
<rect width="40" height="40" fill="white" transform="translate(40 40) rotate(-180)"/>
</clipPath>
</defs>
</svg>
