<svg width="32" height="26" viewBox="0 0 32 26" fill="none" xmlns="http://www.w3.org/2000/svg">
<g clip-path="url(#clip0_59_218)">
<path d="M15.87 25.9997C15.1687 25.9997 14.3375 25.6957 12.2336 24.0738C10.883 23.0602 9.29857 21.6918 7.71416 20.2726C5.35052 18.1187 1.2726 14.1148 0.44143 11.606C-1.09104 6.94321 1.50637 1.95101 6.23364 0.430541C8.51935 -0.279011 10.9349 -0.101623 13.0648 0.937363C14.2077 1.49487 15.1947 2.2551 15.9739 3.19272C18.3116 0.506564 22.1557 -0.70981 25.7401 0.430541C30.4934 1.92567 33.0908 6.94321 31.5323 11.5806C30.7012 14.1148 26.5194 18.1187 24.1297 20.2726C22.5194 21.7171 20.909 23.0602 19.5323 24.0738C17.1687 25.8477 16.4414 25.9997 15.87 25.9997ZM9.01286 3.34477C8.44143 3.34477 7.87 3.42079 7.29857 3.59818C4.33753 4.5358 2.72714 7.65276 3.68818 10.567C3.99987 11.4793 5.71416 13.8107 9.61026 17.4598C12.4414 20.0953 14.857 21.9705 15.87 22.5533C18.3635 21.1342 27.4025 13.2278 28.2856 10.567C29.2466 7.65276 27.6362 4.5358 24.6752 3.62352C21.7661 2.71124 18.5973 4.25705 17.5843 7.09526L15.9739 11.6567L14.3635 7.09526C13.5843 4.78922 11.3505 3.34477 9.01286 3.34477Z" fill="#B12E56"/>
</g>
<defs>
<clipPath id="clip0_59_218">
<rect width="32" height="26" fill="white"/>
</clipPath>
</defs>
</svg>
