<svg width="23" height="22" viewBox="0 0 23 22" fill="none" xmlns="http://www.w3.org/2000/svg">
<path fill-rule="evenodd" clip-rule="evenodd" d="M9.71827 14.7857C6.10372 14.7857 3.17355 12.0275 3.17355 8.625C3.17355 5.22253 6.10372 2.46429 9.71827 2.46429C13.3328 2.46429 16.263 5.22253 16.263 8.625C16.263 10.5187 15.3585 12.2111 13.9246 13.3451C12.7859 14.2455 11.3225 14.7857 9.71827 14.7857ZM17.0964 13.7401C18.218 12.309 18.8809 10.5399 18.8809 8.625C18.8809 3.86154 14.7786 0 9.71827 0C4.6579 0 0.555664 3.86154 0.555664 8.625C0.555664 13.3885 4.6579 17.25 9.71827 17.25C11.7526 17.25 13.6321 16.6259 15.1524 15.5701L20.6427 20.7382C21.1795 21.2435 22.0499 21.2435 22.5867 20.7382C23.1235 20.2329 23.1235 19.4136 22.5867 18.9083L17.0964 13.7401Z" fill="#B8B8B8"/>
</svg>
