<svg width="20" height="20" viewBox="0 0 20 20" fill="none" xmlns="http://www.w3.org/2000/svg">
<g clip-path="url(#clip0_314_398)">
<path d="M7.65297e-05 12.0736C7.64924e-05 12.5006 0.345841 12.8569 0.771168 12.8642L10.1721 12.8642C10.5215 12.9432 10.7846 13.2566 10.7846 13.6289L10.7846 16.0703C10.7846 16.502 11.0531 16.6258 11.3813 16.3458L19.7538 10.5095C20.0821 10.2292 20.0821 9.77074 19.7538 9.49051L11.3815 3.65444C11.0531 3.37421 10.7846 3.4979 10.7846 3.9295L10.7846 6.37096C10.7846 6.8025 10.4314 7.15568 9.99985 7.15568L0.784703 7.16941C0.353006 7.16961 -2.32921e-05 7.52274 -2.33299e-05 7.95414L7.65297e-05 12.0736Z" fill="#585856"/>
</g>
<defs>
<clipPath id="clip0_314_398">
<rect width="20" height="20" fill="white" transform="translate(20 20) rotate(-180)"/>
</clipPath>
</defs>
</svg>
