<svg width="40" height="40" viewBox="0 0 40 40" fill="none" xmlns="http://www.w3.org/2000/svg">
<g clip-path="url(#clip0_814_860)">
<mask id="mask0_814_860" style="mask-type:luminance" maskUnits="userSpaceOnUse" x="0" y="0" width="40" height="40">
<path d="M0 40H40V0H0V40Z" fill="white"/>
</mask>
<g mask="url(#mask0_814_860)">
<path d="M0.000199719 24.1473C0.000199645 25.0013 0.691729 25.7139 1.54238 25.7285L20.3442 25.7285C21.043 25.8865 21.5692 26.5133 21.5692 27.2579V32.1407C21.5692 33.0041 22.1062 33.2517 22.7626 32.6917L39.5076 21.0191C40.1642 20.4585 40.1642 19.5416 39.5076 18.9811L22.763 7.30897C22.1062 6.74851 21.5692 6.99589 21.5692 7.85909V12.742C21.5692 13.6051 20.8628 14.3115 19.9997 14.3115L1.56945 14.3389C0.706059 14.3393 7.56e-08 15.0456 0 15.9084L0.000199719 24.1473Z" fill="#585856"/>
</g>
</g>
<defs>
<clipPath id="clip0_814_860">
<rect width="40" height="40" fill="white"/>
</clipPath>
</defs>
</svg>
