<svg width="240" height="58" viewBox="0 0 240 58" fill="none" xmlns="http://www.w3.org/2000/svg">
<path fill-rule="evenodd" clip-rule="evenodd" d="M85.6863 19.996C85.5777 20.6539 85.4669 21.3253 85.0869 21.7814C83.2628 24.0346 81.3315 26.0733 79.4001 28.1119C79.4001 28.1421 79.3916 28.1891 79.3818 28.2436C79.3568 28.3831 79.3229 28.5712 79.4001 28.6484C81.1553 31.5738 82.0405 33.049 81.964 34.4726C81.8863 35.9208 80.8134 37.3156 78.649 40.1292C59.5501 65.3441 21.3522 63.5201 4.5065 36.9103C3.11163 34.5498 3.21893 32.6184 4.93567 30.7944C6.54514 28.9703 6.33054 27.6827 4.6138 26.1806C2.89703 24.7857 1.60947 23.0689 0.321899 21.3522C0.0357666 20.9945 0.0357666 20.4461 0.0357666 19.8659C0.0357666 19.5758 0.0357666 19.2778 0 18.9916C0.207184 18.9916 0.447723 18.9583 0.696564 18.9238C1.22092 18.8511 1.7821 18.7733 2.14594 18.9916C2.57541 19.2403 3.00964 19.4889 3.44565 19.7386C5.07925 20.674 6.73743 21.6234 8.2619 22.6398C9.65677 23.6054 10.6224 23.9273 12.0173 22.5325C13.0746 21.5373 14.2041 20.6143 15.322 19.7007L15.3226 19.7002C16.1331 19.0378 16.9375 18.3804 17.7041 17.7041C17.3249 16.7184 16.919 15.746 16.5147 14.7776L16.5142 14.7764L16.5138 14.7754L16.5135 14.7747C15.774 13.0034 15.0399 11.2452 14.4852 9.44217C14.34 8.93419 14.4893 8.27895 14.6344 7.64244C14.7039 7.33786 14.7723 7.03756 14.807 6.75974C15.0932 6.86703 15.4151 6.93857 15.737 7.0101C16.3808 7.15316 17.0245 7.29622 17.3822 7.72541C18.2559 8.59918 19.0032 9.56782 19.7441 10.5283L19.7446 10.5289C20.3683 11.3374 20.9876 12.1402 21.6741 12.8757C22.2106 13.5195 23.4981 14.2706 24.1419 14.056C26.4396 13.3207 28.6585 12.428 30.9336 11.5127C31.3146 11.3595 31.6972 11.2055 32.0819 11.0516C32.0459 10.1102 31.985 9.18102 31.9246 8.25991L31.9245 8.25801L31.9244 8.2561L31.9243 8.2543L31.9242 8.25259L31.9241 8.2509L31.924 8.24923L31.9239 8.24758L31.9238 8.24595L31.9237 8.24435L31.9236 8.24289L31.9236 8.24144L31.9235 8.24002L31.9234 8.23864L31.9233 8.2373L31.9232 8.236L31.9231 8.23473C31.8052 6.43498 31.6893 4.666 31.76 2.89703C31.76 2.27623 32.1591 1.65544 32.5582 1.03464C32.7799 0.689758 33.0016 0.344879 33.1549 0C33.4094 0.254469 33.7008 0.484306 33.9874 0.710375C34.5468 1.15156 35.088 1.57839 35.3008 2.14595C35.6753 3.26922 36.0293 4.41292 36.3896 5.57703L36.3904 5.57955C36.8558 7.08339 37.3318 8.62128 37.876 10.1933C38.5701 10.1933 39.2709 10.1999 39.975 10.2066C42.1007 10.2267 44.2569 10.2472 46.3525 10.086C46.9963 10.086 47.9619 9.01299 48.2838 8.2619C48.713 7.24261 49.0349 6.16967 49.3568 5.09673C49.6787 4.02372 50.0006 2.95071 50.4298 1.93135C50.63 1.46416 51.1208 1.1215 51.6183 0.774281C51.9205 0.563297 52.2251 0.350626 52.4684 0.107298C52.5974 0.332928 52.7457 0.558558 52.8959 0.787096C53.2457 1.31932 53.6059 1.86732 53.756 2.46784C53.9174 3.03253 53.8967 3.71852 53.8766 4.38901V4.38925C53.8699 4.61049 53.8633 4.83004 53.8633 5.04298C53.8633 6.43785 53.8633 7.83271 53.6487 9.12028C53.4341 10.3006 53.756 10.837 54.1852 11.3735C54.6016 11.9287 55.1078 12.0351 55.9651 12.2151C56.4332 12.3134 57.006 12.4337 57.726 12.6611C58.8572 13.0382 59.5743 13.4359 60.132 13.7453C60.8438 14.1401 61.2959 14.3909 62.0179 14.2706C62.9836 14.056 63.7347 13.4122 64.2712 12.8757C64.4926 12.61 64.6775 12.2894 64.8635 11.9668C65.1282 11.5078 65.3953 11.0448 65.7733 10.7297C67.2755 9.33488 68.9922 8.04731 70.709 6.75974C71.9714 8.57443 71.2032 10.099 70.4521 11.5895C70.1818 12.126 69.9137 12.658 69.7433 13.1976C69.4373 14.0545 69.0265 14.8416 68.6105 15.6386L68.6104 15.6388C68.2972 16.2388 67.9812 16.8443 67.7047 17.4895C69.9579 19.5281 72.1039 21.3522 74.3571 23.0689C74.8936 23.4981 76.1812 23.3908 76.825 23.0689C77.6796 22.5741 78.4966 22.0228 79.3153 21.4702L79.3157 21.4699C80.4498 20.7045 81.5874 19.9366 82.8336 19.3135C83.4387 19.011 84.2036 19.0817 84.9406 19.1497C85.2492 19.1782 85.5529 19.2062 85.838 19.2062C85.7754 19.4566 85.731 19.7251 85.6863 19.996ZM22.6398 45.3868C39.0563 56.3311 62.0179 51.8247 73.3914 35.73C73.9279 34.979 74.1425 33.4768 73.8206 33.0476C69.2068 26.8244 63.4128 21.996 55.4728 19.0989C62.6617 29.936 61.9106 39.2709 53.8633 45.7087C47.2109 51.0736 36.5884 50.5371 30.3652 44.5284C25.0003 39.4855 23.0689 29.3995 27.5754 24.0346C27.7837 24.3678 27.9758 24.701 28.1642 25.0279C28.4613 25.5432 28.7494 26.0429 29.0776 26.5025C31.3308 29.5068 35.8373 30.2579 39.0563 28.1119C42.1679 26.0733 43.2409 21.7814 41.0949 18.8843C40.4511 17.9187 38.8417 17.1676 37.7687 17.2749C27.1462 18.5625 18.777 23.9273 12.1246 32.2965C10.9443 33.6914 10.9443 34.8717 12.2319 36.0519C13.3311 37.048 14.3972 38.0991 15.4656 39.1523C17.7346 41.3893 20.0136 43.636 22.6398 45.3868ZM96.8885 2.89706H93.6696V17.3822H102.683H103.326V21.4595H106.223L106.545 16.6311V14.5925H104.614V2.89706H101.395V14.5925H96.8885V2.89706ZM108.369 2.89706H117.382V5.6868H111.588V8.58383H116.523V11.3736H111.588V14.6998H117.596V17.4895H108.262V2.89706H108.369ZM123.713 2.89706H120.494V17.3822H123.713V11.3736H128.756V17.3822H131.975V2.89706H128.756V8.47653H123.713V2.89706ZM138.306 5.6868H134.336V2.89706H145.602V5.6868H141.632V17.3822H138.413V5.6868H138.306ZM152.79 2.89706H147.855V17.3822H151.074V12.4465H152.898C156.009 12.4465 158.584 10.9444 158.584 7.51085C158.584 4.07734 156.009 2.89706 152.79 2.89706ZM155.366 7.51085C155.366 9.12032 154.507 9.8714 152.683 9.8714H151.074V5.4722H152.576C154.4 5.4722 155.366 6.00869 155.366 7.51085ZM162.662 2.89706H166.525L171.031 17.3822H167.598L166.689 13.9487H162.176L161.267 17.3822H157.941L162.662 2.89706ZM165.667 10.086L166.007 11.3736H162.858L163.199 10.086C163.628 8.69112 164.057 6.97437 164.379 5.4722H164.486C164.685 6.1674 164.861 6.90855 165.034 7.64249L165.035 7.64326L165.035 7.64384C165.237 8.49533 165.436 9.33706 165.667 10.086ZM171.567 14.5925L171.031 17.4895L171.138 17.5111C171.627 17.6103 172.054 17.6969 172.855 17.5968C175.108 17.5968 176.288 16.3092 177.254 11.4809C177.402 10.5912 177.573 9.72433 177.746 8.84875L177.746 8.84731L177.747 8.8451L177.747 8.84197L177.748 8.84084L177.748 8.83988L177.748 8.83902L177.748 8.83842C177.95 7.81657 178.154 6.78269 178.327 5.6868H181.009V17.4895H184.228V3.00437H175.752L175.747 3.02898L175.747 3.02948C175.212 5.81084 174.677 8.59188 174.142 11.2663C173.498 14.3779 172.962 14.6998 172.211 14.6998C172.034 14.6998 171.922 14.6673 171.821 14.638C171.738 14.6142 171.664 14.5925 171.567 14.5925ZM187.555 2.89706H190.774V8.15464H192.598C195.817 8.15464 198.285 9.44221 198.285 12.5538C198.285 16.0946 195.817 17.2749 192.598 17.2749H187.555V2.89706ZM192.49 14.8071C194.207 14.8071 195.173 14.1633 195.173 12.6611C195.173 11.3736 194.315 10.7298 192.49 10.7298H190.881V14.6998H192.49V14.8071ZM204.079 2.89706H200.86V17.3822H204.079V11.3736H209.122V17.3822H212.341V2.89706H209.122V8.47653H204.079V2.89706ZM218.564 2.89706H222.426L226.933 17.3822H223.499L222.591 13.9487H218.078L217.169 17.3822H213.843L218.564 2.89706ZM221.568 10.086L221.909 11.3736H218.759L219.1 10.086C219.529 8.69112 219.959 6.97437 220.281 5.4722H220.388C220.586 6.1674 220.762 6.90855 220.936 7.64249L220.936 7.64326L220.936 7.64384C221.138 8.49533 221.338 9.33706 221.568 10.086ZM230.765 11.7636C229.122 11.1102 228.006 9.74693 228.006 7.51086C228.006 4.07734 230.474 3.00437 233.586 3.00437H238.843V17.4895H235.624V12.2319H235.517H233.885L230.903 17.3822H227.148L230.765 11.7636ZM235.517 9.54951H233.8C232.084 9.54951 231.118 8.79843 231.118 7.40356C231.118 5.9014 232.084 5.47221 233.8 5.47221H235.517V9.54951ZM94.3137 41.846C94.3137 33.5841 99.0348 28.7557 105.902 28.7557C112.769 28.7557 117.49 33.5841 117.49 41.846C117.49 50.1079 112.769 55.1509 105.902 55.1509C99.0348 55.1509 94.3137 50.1079 94.3137 41.846ZM111.481 41.846C111.481 36.6957 109.335 33.6914 105.795 33.6914C102.361 33.6914 100.108 36.6957 100.108 41.846C100.108 46.889 102.254 50.2152 105.795 50.2152C109.335 50.1079 111.481 46.889 111.481 41.846ZM142.061 29.1849H122.211V54.6144H127.898V34.0133H136.267V54.6144H142.061V29.1849ZM153.006 34.0133H146.031V29.1849H165.774V34.0133H158.8V54.6144H153.006V34.0133ZM175.43 29.1849H169.744V54.6144H175.86L182.619 41.9533L185.087 36.3738H185.194L185.128 36.9434L185.117 37.0434L185.117 37.0453L185.116 37.047C184.807 39.7037 184.443 42.8346 184.443 45.6014V54.6144H190.023V29.1849H183.907L177.254 41.846L174.787 47.4255H174.679L174.69 47.3319C175.011 44.6611 175.43 41.1674 175.43 38.1979V29.1849ZM196.139 29.1849H201.933V39.1636H204.623L207.942 33.2622C209.873 29.8287 211.805 28.6484 214.702 28.6484C215.453 28.6484 216.204 28.7557 216.74 28.9703L215.775 34.1206C215.346 34.0133 214.916 34.0133 214.702 34.0133C213.522 34.0133 212.878 34.5498 211.805 36.3738L209.181 41.0156L217.209 54.1517L225.11 29.1849H231.977L239.917 54.6144H233.801L232.249 48.6058H224.516L222.964 54.6144L217.492 54.6144L217.062 54.6144L211.483 54.6144L204.723 43.7774H201.933V54.6144H196.139V29.1849ZM225.68 44.0993H231.084L230.475 41.7387C229.969 40.0068 229.513 38.0807 229.072 36.2217C228.858 35.3166 228.647 34.4273 228.436 33.5841H228.329C228.171 34.2392 228.014 34.9135 227.855 35.5946C227.364 37.702 226.858 39.8736 226.29 41.7387L225.68 44.0993Z" fill="#69B02E"/>
</svg>
