<svg xmlns="http://www.w3.org/2000/svg" version="1.1" xmlns:xlink="http://www.w3.org/1999/xlink" xmlns:svgjs="http://svgjs.com/svgjs" width="1920" height="360" preserveAspectRatio="none" viewBox="0 0 1920 360"><g mask="url(&quot;#SvgjsMask1643&quot;)" fill="none"><rect width="1920" height="360" x="0" y="0" fill="rgba(255, 255, 255, 1)"></rect><path d="M 0,120 C 38.4,111.6 115.2,78.4 192,78 C 268.8,77.6 307.2,123.4 384,118 C 460.8,112.6 499.2,50.8 576,51 C 652.8,51.2 691.2,124 768,119 C 844.8,114 883.2,14.6 960,26 C 1036.8,37.4 1075.2,163.4 1152,176 C 1228.8,188.6 1267.2,89.8 1344,89 C 1420.8,88.2 1459.2,186.8 1536,172 C 1612.8,157.2 1651.2,28.2 1728,15 C 1804.8,1.8 1881.6,87.8 1920,106L1920 360L0 360z" fill="rgba(84, 141, 37, 1)"></path><path d="M 0,232 C 38.4,257.6 115.2,357.8 192,360 C 268.8,362.2 307.2,257.2 384,243 C 460.8,228.8 499.2,299.2 576,289 C 652.8,278.8 691.2,183.2 768,192 C 844.8,200.8 883.2,325.4 960,333 C 1036.8,340.6 1075.2,234.4 1152,230 C 1228.8,225.6 1267.2,309.6 1344,311 C 1420.8,312.4 1459.2,231.8 1536,237 C 1612.8,242.2 1651.2,332.8 1728,337 C 1804.8,341.2 1881.6,273.8 1920,258L1920 360L0 360z" fill="rgba(89, 167, 25, 1)"></path></g><defs><mask id="SvgjsMask1643"><rect width="1920" height="360" fill="#ffffff"></rect></mask></defs></svg>